# xmcd
#
# Track frame offsets: 
#        150
#        15364
#        29704
#        44199
#        59492
#        70295
#        82726
#        92537
#        107896
#        119746
#        133719
#        148370
#
# Disc length: 2156 seconds
#
# Revision: 0
# Processed by: cddbd v1.5.2PL0 Copyright (c) Steve Scherf et al.
# Submitted via: ExactAudioCopy v0.99pb4
#
DISCID=b4086a0c
DTITLE=Ernestine Anderson - Hot Cargo
DYEAR=1958
DGENRE=Jazz
TTITLE0=Mad About The Boy
TTITLE1=Did I Remember
TTITLE2=Day Dream
TTITLE3=Experiment
TTITLE4=That Old Feeling
TTITLE5=The Song Is Ended
TTITLE6=Love For Sale
TTITLE7=Autumn In New York
TTITLE8=My Man
TTITLE9=Ill Wind
TTITLE10=Little Girl Blue
TTITLE11=Wrap Your Troubles In Dreams
EXTD=
EXTT0=
EXTT1=
EXTT2=
EXTT3=
EXTT4=
EXTT5=
EXTT6=
EXTT7=
EXTT8=
EXTT9=
EXTT10=
EXTT11=
PLAYORDER=
